<?xml version="1.0" encoding="iso-8859-1"?>
<!-- Generator: Adobe Illustrator 19.0.0, SVG Export Plug-In . SVG Version: 6.00 Build 0)  -->
<svg version="1.1" id="Capa_1" xmlns="http://www.w3.org/2000/svg" xmlns:xlink="http://www.w3.org/1999/xlink" x="0px" y="0px"
	 viewBox="0 0 497.371 497.371" style="enable-background:new 0 0 497.371 497.371;" xml:space="preserve">
<rect x="193.097" y="375.954" style="fill:#A5C3D1;" width="112.64" height="100.937"/>
<g style="opacity:0.1;">
	<rect x="193.097" y="375.954" style="fill:#030303;" width="112.64" height="36.571"/>
</g>
<g style="opacity:0.1;">
	<path style="fill:#030303;" d="M482.743,70.217V45.349c0-13.166-11.703-24.869-24.869-24.869H39.497
		c-13.166,0-24.869,11.703-24.869,24.869v23.406h468.114V70.217z"/>
</g>
<path style="fill:#E09C49;" d="M14.629,289.646v46.811c0,21.943,17.554,39.497,39.497,39.497h387.657
	c21.943,0,39.497-17.554,39.497-39.497v-46.811H14.629z"/>
<g>
	<path style="fill:#030303;" d="M457.874,390.583H39.497C17.554,390.583,0,373.029,0,351.086V45.349
		C0,23.406,17.554,5.851,39.497,5.851h418.377c21.943,0,39.497,17.554,39.497,39.497v304.274
		C497.371,373.029,479.817,390.583,457.874,390.583z M39.497,35.109c-5.851,0-10.24,4.389-10.24,10.24v304.274
		c0,5.851,4.389,10.24,10.24,10.24h418.377c5.851,0,10.24-4.389,10.24-10.24V45.349c0-5.851-4.389-10.24-10.24-10.24
		C457.874,35.109,39.497,35.109,39.497,35.109z"/>
	<path style="fill:#030303;" d="M482.743,304.274H14.629C5.851,304.274,0,298.423,0,289.646c0-8.777,5.851-14.629,14.629-14.629
		h468.114c8.777,0,14.629,5.851,14.629,14.629C497.371,298.423,491.52,304.274,482.743,304.274z"/>
</g>
<g>
	<path style="fill:#FFFFFF;" d="M267.703,346.697h-39.497c-8.777,0-14.629-5.851-14.629-14.629c0-8.777,5.851-14.629,14.629-14.629
		h39.497c8.777,0,14.629,5.851,14.629,14.629C282.331,340.846,276.48,346.697,267.703,346.697z"/>
	<path style="fill:#FFFFFF;" d="M415.451,346.697c-4.389,0-7.314-1.463-10.24-4.389c-2.926-2.926-4.389-5.851-4.389-10.24
		s1.463-7.314,4.389-10.24c5.851-5.851,14.629-5.851,20.48,0c2.926,2.926,4.389,5.851,4.389,10.24c0,4.389-1.463,7.314-4.389,10.24
		S419.84,346.697,415.451,346.697z"/>
</g>
<g>
	<path style="fill:#010101;" d="M131.657,179.931l14.629-46.811h10.24l14.629,46.811l16.091-46.811h11.703l-23.406,65.829h-10.24
		L150.674,153.6h-1.463l-13.166,45.349h-10.24L102.4,133.12h11.703L131.657,179.931z"/>
	<path style="fill:#010101;" d="M229.669,179.931l14.629-46.811h10.24l14.629,46.811l16.091-46.811h11.703l-23.406,65.829h-10.24
		L248.686,153.6h-1.463l-13.166,45.349h-10.24l-23.406-65.829h11.703L229.669,179.931z"/>
	<path style="fill:#010101;" d="M327.68,179.931l14.629-46.811h10.24l14.629,46.811l16.091-46.811h11.703l-23.406,65.829h-10.24
		L346.697,153.6h-1.463l-13.166,45.349h-10.24l-23.406-65.829h11.703L327.68,179.931z"/>
</g>
<g>
	<path style="fill:#030303;" d="M304.274,491.52h-112.64c-8.777,0-14.629-5.851-14.629-14.629V375.954
		c0-8.777,5.851-14.629,14.629-14.629h112.64c8.777,0,14.629,5.851,14.629,14.629v100.937
		C318.903,484.206,313.051,491.52,304.274,491.52z M207.726,462.263h83.383v-71.68h-83.383V462.263z"/>
	<path style="fill:#030303;" d="M346.697,491.52H150.674c-8.777,0-14.629-5.851-14.629-14.629s5.851-14.629,14.629-14.629h196.023
		c8.777,0,14.629,5.851,14.629,14.629S355.474,491.52,346.697,491.52z"/>
</g>
<g>
</g>
<g>
</g>
<g>
</g>
<g>
</g>
<g>
</g>
<g>
</g>
<g>
</g>
<g>
</g>
<g>
</g>
<g>
</g>
<g>
</g>
<g>
</g>
<g>
</g>
<g>
</g>
<g>
</g>
</svg>
