<?xml version="1.0" encoding="iso-8859-1"?>
<!-- Generator: Adobe Illustrator 19.0.0, SVG Export Plug-In . SVG Version: 6.00 Build 0)  -->
<svg version="1.1" id="Capa_1" xmlns="http://www.w3.org/2000/svg" xmlns:xlink="http://www.w3.org/1999/xlink" x="0px" y="0px"
	 viewBox="0 0 497.371 497.371" style="enable-background:new 0 0 497.371 497.371;" xml:space="preserve">
<path style="fill:#A5C3D1;" d="M424.229,403.749c-39.497,46.811-103.863,78.994-175.543,78.994
	c-67.291,0-131.657-29.257-175.543-78.994l0,0c38.034-55.589,102.4-93.623,175.543-93.623c36.571,0,67.291,8.777,99.474,24.869l0,0
	c4.389,2.926,7.314,4.389,11.703,7.314C361.326,340.846,406.674,373.029,424.229,403.749z"/>
<g>
	<path style="fill:#849DA9;" d="M424.229,403.749c-2.926,2.926-4.389,5.851-7.314,8.777c-30.72-17.554-65.829-26.331-102.4-26.331
		c-65.829,0-122.88,29.257-162.377,76.069c-29.257-13.166-57.051-33.646-77.531-58.514l0,0c2.926-2.926,4.389-7.314,7.314-10.24
		c38.034-51.2,99.474-83.383,168.229-83.383c32.183,0,61.44,5.851,99.474,24.869l0,0c4.389,2.926,7.314,4.389,11.703,7.314
		C361.326,340.846,406.674,373.029,424.229,403.749z"/>
	<path style="fill:#849DA9;" d="M437.394,425.691L437.394,425.691c0,0,0-1.463-1.463-1.463
		C435.931,424.229,435.931,424.229,437.394,425.691z"/>
</g>
<circle style="fill:#F6E272;" cx="248.686" cy="196.023" r="114.103"/>
<path style="fill:#FFCA19;" d="M349.623,141.897c-16.091-10.24-35.109-14.629-55.589-14.629c-62.903,0-114.103,51.2-114.103,114.103
	c0,19.017,4.389,38.034,13.166,54.126c-35.109-19.017-57.051-57.051-57.051-99.474c0-62.903,51.2-114.103,114.103-114.103
	C292.571,81.92,329.143,106.789,349.623,141.897z"/>
<path d="M248.686,324.754c-70.217,0-128.731-57.051-128.731-128.731S177.006,67.291,248.686,67.291s128.731,57.051,128.731,128.731
	S318.903,324.754,248.686,324.754z M248.686,96.549c-54.126,0-99.474,43.886-99.474,99.474s43.886,99.474,99.474,99.474
	c54.126,0,99.474-43.886,99.474-99.474S302.811,96.549,248.686,96.549z"/>
<path d="M248.686,497.371c-74.606,0-141.897-33.646-185.783-84.846c-2.926-2.926-2.926-5.851-2.926-10.24
	c0-2.926,1.463-5.851,2.926-8.777c0-1.463,2.926-5.851,5.851-8.777c43.886-57.051,109.714-89.234,179.931-89.234
	c23.406,0,51.2,4.389,64.366,8.777l0,0c17.554,5.851,27.794,10.24,40.96,17.554l0,0c0,0,1.463,0,1.463,1.463l0,0
	c8.777,4.389,14.629,7.314,23.406,14.629c5.851,0,42.423,38.034,45.349,43.886c2.926,2.926,5.851,7.314,8.777,10.24
	c1.463,1.463,1.463,2.926,2.926,4.389c2.926,5.851,2.926,11.703-1.463,17.554C393.509,462.263,324.754,497.371,248.686,497.371z
	 M92.16,402.286c39.497,40.96,95.086,65.829,156.526,65.829c59.977,0,115.566-23.406,156.526-65.829
	c-35.109-46.811-92.16-77.531-156.526-77.531C187.246,324.754,130.194,352.549,92.16,402.286L92.16,402.286z"/>
<path d="M248.686,497.371C111.177,497.371,0,386.194,0,248.686S111.177,0,248.686,0s248.686,111.177,248.686,248.686
	S386.194,497.371,248.686,497.371z M248.686,29.257c-121.417,0-219.429,98.011-219.429,219.429s98.011,219.429,219.429,219.429
	s219.429-98.011,219.429-219.429S370.103,29.257,248.686,29.257z"/>
<path d="M466.651,488.594l-203.337-84.846c-7.314-2.926-10.24-11.703-7.314-19.017s11.703-11.703,19.017-7.314l203.337,84.846
	c7.314,2.926,10.24,11.703,7.314,19.017C482.743,488.594,473.966,491.52,466.651,488.594z"/>
<g>
</g>
<g>
</g>
<g>
</g>
<g>
</g>
<g>
</g>
<g>
</g>
<g>
</g>
<g>
</g>
<g>
</g>
<g>
</g>
<g>
</g>
<g>
</g>
<g>
</g>
<g>
</g>
<g>
</g>
</svg>
